<?xml version="1.0" encoding="utf-8"?>
<!-- Generator: Adobe Illustrator 23.1.1, SVG Export Plug-In . SVG Version: 6.00 Build 0)  -->
<svg version="1.1" id="Layer_1" xmlns="http://www.w3.org/2000/svg" xmlns:xlink="http://www.w3.org/1999/xlink" x="0px" y="0px"
	 viewBox="0 0 300 300" style="enable-background:new 0 0 300 300;" xml:space="preserve">
<style type="text/css">
	.st0{fill:#C3D8DF;}
	.st1{fill:#6991AC;}
	.st2{fill:#D65C36;}
</style>
<polygon class="st0" points="221.09,33.92 87.28,33.92 20.38,149.8 87.28,265.68 221.09,265.68 287.99,149.8 "/>
<g>
	<path class="st1" d="M213.01,259.79H78.62l-0.14-0.25L11.43,143.42l0.14-0.25L78.62,27.04h134.38l0.14,0.25l67.05,116.13
		l-0.14,0.25L213.01,259.79z M79.2,258.79h133.23l66.61-115.38L212.43,28.04H79.2L12.59,143.42L79.2,258.79z"/>
</g>
<g>
	<path class="st2" d="M149.38,167.56c1,0,1.26,0.27,0.8,0.81c-0.46,0.54-0.92,1.08-1.38,1.61c-0.54,0.61-1.09,1.26-1.67,1.96
		c-0.57,0.69-1.21,1.46-1.9,2.3c-2.3,2.69-4.41,5.31-6.33,7.88c-1.92,2.57-3.99,5.2-6.21,7.88c-2.68,3.22-5.64,6.04-8.86,8.46
		c-3.22,2.42-6.71,3.62-10.47,3.62c-0.92,0-1.63-0.42-2.13-1.27c-0.5-0.85-0.83-1.94-0.98-3.28c-0.15-1.34-0.17-2.88-0.06-4.6
		c0.11-1.73,0.33-3.51,0.63-5.35c0.23-1.07,0.48-2.69,0.75-4.83c0.27-2.15,0.4-4.33,0.4-6.56c0-2.22-0.23-4.28-0.69-6.16
		c-0.46-1.88-1.31-3.13-2.53-3.74c-0.92-0.38-1.92-0.1-2.99,0.86c-1.07,0.96-2.09,2.17-3.05,3.62c-0.96,1.46-1.8,2.9-2.53,4.32
		c-0.73,1.42-1.21,2.36-1.44,2.82c-1.07,2.76-2,5.54-2.76,8.34c-0.77,2.8-1.55,5.35-2.36,7.65c-0.81,2.3-1.73,4.2-2.76,5.7
		c-1.03,1.5-2.4,2.28-4.08,2.36c-0.92,0-1.65-0.67-2.19-2.01c-0.54-1.34-0.9-3.07-1.09-5.18s-0.25-4.43-0.17-6.96
		c0.08-2.53,0.17-4.95,0.29-7.25c0.11-2.3,0.25-4.33,0.4-6.1c0.15-1.76,0.27-2.91,0.34-3.45c0.38-6.44,0.96-12.75,1.73-18.93
		c0.77-6.17,1.65-11.76,2.64-16.74c0.46-2.38,0.96-4.68,1.5-6.9c0.54-2.22,1.23-4.79,2.07-7.71c0.15-0.77,0.4-1.49,0.75-2.19
		c0.35-0.69,0.67-1.57,0.98-2.65c0.31-1.23,0.78-2.8,1.44-4.72c0.65-1.92,1.38-3.93,2.19-6.04c0.8-2.11,1.65-4.24,2.53-6.39
		c0.88-2.15,1.75-4.03,2.59-5.64c0.69-1.46,1.65-3.32,2.88-5.58c1.23-2.26,2.65-4.41,4.26-6.44c1.61-2.03,3.38-3.72,5.29-5.06
		c1.92-1.34,3.87-1.86,5.87-1.55c1.46,0.31,2.55,0.94,3.28,1.9c0.73,0.96,1.17,2.15,1.32,3.57c0.15,1.42,0.11,3.01-0.12,4.77
		c-0.23,1.77-0.54,3.57-0.92,5.41c-0.69,2.76-1.48,5.35-2.36,7.77c-0.88,2.42-1.52,4.24-1.9,5.47c-0.46,1.46-1.29,3.59-2.47,6.39
		c-1.19,2.8-2.59,5.98-4.2,9.55c-1.61,3.57-3.38,7.35-5.29,11.33c-1.92,3.99-3.88,7.94-5.87,11.85c-3.07,5.98-5.97,11.18-8.69,15.59
		c-2.73,4.41-4.93,7.61-6.62,9.61c0,3.22-0.1,6.9-0.29,11.05c-0.19,4.14-0.37,8.17-0.52,12.08c-0.08,2.3-0.02,4.09,0.17,5.35
		c0.19,1.27,0.59,1.86,1.21,1.78c0.54,0,1.07-0.52,1.61-1.55c0.54-1.03,1.04-2.28,1.5-3.74c0.46-1.46,0.92-2.97,1.38-4.54
		c0.46-1.57,0.92-2.93,1.38-4.08c0.23-0.54,0.52-1.28,0.86-2.24c0.34-0.96,0.73-2.03,1.15-3.22c0.42-1.19,0.88-2.42,1.38-3.68
		c0.5-1.26,1.05-2.47,1.67-3.62c1.3-2.53,2.82-4.6,4.54-6.21c1.73-1.61,3.59-2.26,5.58-1.96c1.53,0.23,2.76,1.08,3.68,2.53
		c0.92,1.46,1.57,3.07,1.95,4.83c0.38,1.77,0.59,3.57,0.64,5.41c0.04,1.84-0.06,3.38-0.29,4.6c-0.39,2.3-0.77,4.53-1.15,6.67
		c-0.38,2.15-0.61,4.07-0.69,5.75c-0.08,1.69,0.04,3.05,0.34,4.09c0.31,1.03,0.92,1.59,1.84,1.67c2.68-0.38,5.2-1.4,7.54-3.05
		c2.34-1.65,4.51-3.62,6.5-5.93c1.76-2.07,3.57-4.28,5.41-6.62c1.84-2.34,3.68-4.62,5.52-6.85c1.53-1.76,2.87-3.32,4.03-4.66
		c1.15-1.34,2.15-2.43,2.99-3.28c0.38-0.38,0.69-0.59,0.92-0.63C148.35,167.58,148.77,167.56,149.38,167.56z M92.99,128.78
		c-0.23,0.92-0.54,2.36-0.92,4.31c-0.38,1.96-0.79,4.16-1.21,6.62c-0.42,2.46-0.86,5.01-1.32,7.65c-0.46,2.65-0.86,5.1-1.21,7.36
		c-0.34,2.26-0.61,4.2-0.8,5.81c-0.19,1.61-0.21,2.61-0.06,2.99c0.08-0.08,0.34-0.52,0.8-1.32c0.46-0.8,1.03-1.8,1.73-2.99
		c0.69-1.19,1.42-2.47,2.18-3.85c0.77-1.38,1.5-2.69,2.19-3.91c0.69-1.23,1.28-2.28,1.78-3.16s0.79-1.44,0.87-1.67
		c1.69-3.45,3.49-7,5.41-10.64c1.92-3.64,3.8-7.34,5.64-11.1c1.84-3.76,3.57-7.48,5.18-11.16c1.61-3.68,3.03-7.29,4.26-10.82
		c0.54-1.76,1.17-3.53,1.9-5.29c0.73-1.76,1.38-3.58,1.95-5.47c0.57-1.88,1-3.8,1.27-5.75c0.27-1.96,0.29-4.05,0.06-6.27
		c-0.31-1.61-1.11-2.49-2.42-2.65c-1.92-0.08-3.88,0.86-5.87,2.82s-3.93,4.51-5.81,7.65c-1.88,3.15-3.66,6.69-5.35,10.64
		c-1.69,3.95-3.22,7.85-4.6,11.68c-1.38,3.84-2.57,7.4-3.57,10.7C94.07,124.26,93.38,126.87,92.99,128.78z"/>
	<path class="st2" d="M207.38,167.1c0.54,0,0.84,0.06,0.92,0.17c0.08,0.11,0.04,0.29-0.11,0.52c-0.15,0.23-0.37,0.5-0.63,0.8
		c-0.27,0.31-0.52,0.62-0.75,0.92c-1.69,2.07-3.39,4.18-5.12,6.33c-1.72,2.15-3.47,4.34-5.23,6.56c-2.69,3.38-5.37,6.69-8.05,9.95
		c-2.69,3.26-5.33,6.39-7.94,9.38c-2.69,3.07-5.33,5.64-7.94,7.71c-2.61,2.07-4.95,3.07-7.02,2.99c-1.53-0.08-2.97-1.25-4.31-3.51
		c-1.34-2.26-2.05-6-2.13-11.22c-0.08-2.22-0.11-4.49-0.11-6.79c0-2.3,0-4.45,0-6.44c0-1.99,0-3.76,0-5.29
		c0-1.53-0.04-2.61-0.11-3.22c-0.61,1.54-1.57,3.49-2.88,5.87c-1.3,2.38-2.72,4.76-4.26,7.13c-1.3,2-2.61,3.93-3.91,5.81
		c-1.3,1.88-2.61,3.55-3.91,5c-1.3,1.46-2.57,2.59-3.8,3.39c-1.23,0.81-2.42,1.13-3.57,0.98c-1.76-0.16-2.91-1.34-3.45-3.57
		c-0.54-2.22-0.5-4.87,0.11-7.94c0.38-2.07,0.86-4.22,1.44-6.44c0.57-2.22,1.44-4.41,2.59-6.56c1.15-2.15,2.5-4.2,4.03-6.16
		c1.54-1.96,3.2-3.62,5.01-5.01c1.8-1.38,3.72-2.42,5.75-3.11c2.03-0.69,4.16-0.8,6.39-0.34c0-4.6,0.06-8.9,0.17-12.89
		c0.11-3.99,0.31-7.92,0.57-11.8c0.27-3.87,0.64-7.79,1.1-11.74c0.46-3.95,1.07-8.23,1.84-12.83c0.69-3.99,1.46-7.86,2.3-11.62
		c0.84-3.76,1.88-7.1,3.11-10.01c1.23-2.92,2.63-5.25,4.2-7.02c1.57-1.76,3.39-2.61,5.46-2.53c1.76,0.08,3.05,0.88,3.85,2.42
		c0.81,1.54,1.29,3.57,1.44,6.1c0.15,2.53,0.04,5.43-0.34,8.69c-0.38,3.26-0.92,6.62-1.61,10.07c-0.69,3.45-1.48,6.89-2.36,10.3
		c-0.88,3.41-1.75,6.54-2.59,9.38c-0.69,2.46-1.34,4.64-1.96,6.56c-0.61,1.92-1.11,3.41-1.49,4.49c-1.31,3.99-2.69,8.09-4.14,12.31
		c-1.46,4.22-3.42,8.86-5.87,13.92c-0.23,3.45-0.31,7.61-0.23,12.49c0.08,4.87,0.27,9.84,0.57,14.9c-0.08,4.07,0.21,7.04,0.87,8.92
		c0.65,1.88,1.51,3.01,2.59,3.39c1.3,0.38,2.84-0.04,4.6-1.27c1.76-1.23,3.58-2.82,5.46-4.77c1.88-1.96,3.7-4.07,5.47-6.33
		c1.76-2.26,3.33-4.2,4.72-5.81c1.76-2.15,3.36-4.1,4.77-5.87c1.42-1.76,2.55-3.11,3.39-4.03c1.23-1.3,2.36-2.59,3.39-3.86
		c1.03-1.26,2.01-2.47,2.93-3.62c0.92-1.07,1.76-2.07,2.53-2.99c0.77-0.92,1.46-1.69,2.07-2.3c0.38-0.38,0.69-0.57,0.92-0.57
		C206.34,167.1,206.76,167.1,207.38,167.1z M152.03,183.33c0.77-1.07,1.55-2.51,2.36-4.31c0.8-1.8,1.53-3.57,2.19-5.29
		c0.65-1.73,1.17-3.24,1.55-4.55c0.38-1.3,0.5-1.96,0.34-1.96c-2.69-0.54-5.75,0.37-9.2,2.7c-3.45,2.34-6.56,6.16-9.32,11.45
		c-1.15,2.23-2.11,4.45-2.88,6.67c-0.77,2.23-1.28,4.28-1.55,6.16c-0.27,1.88-0.27,3.49,0,4.83c0.27,1.34,0.86,2.24,1.78,2.7
		c0.69,0.31,1.73-0.33,3.11-1.9c1.38-1.57,2.84-3.45,4.37-5.64c1.54-2.19,2.97-4.33,4.32-6.44
		C150.43,185.65,151.41,184.17,152.03,183.33z M161.69,142.82c-0.38,4.6-0.57,8.78-0.57,12.54c0,3.76,0.11,6.44,0.34,8.05
		c0.61-1.07,1.26-2.51,1.96-4.31c0.69-1.8,1.46-3.89,2.3-6.27c1.46-4.07,2.95-8.67,4.49-13.81c1.53-5.14,2.95-10.32,4.26-15.54
		c1.15-4.45,2.15-8.76,2.99-12.95c0.84-4.18,1.4-7.9,1.67-11.16c0.27-3.26,0.21-5.94-0.17-8.05c-0.38-2.11-1.26-3.32-2.65-3.62
		c-0.84-0.15-1.69,0.36-2.53,1.55c-0.84,1.19-1.67,2.76-2.47,4.72c-0.8,1.96-1.57,4.13-2.3,6.5c-0.73,2.38-1.36,4.64-1.9,6.79
		c-0.54,2.15-0.98,4.07-1.32,5.75c-0.34,1.69-0.56,2.8-0.63,3.34c-0.15,0.92-0.37,2.3-0.63,4.14c-0.27,1.84-0.57,3.97-0.92,6.39
		c-0.34,2.42-0.69,5.01-1.04,7.77C162.21,137.42,161.92,140.14,161.69,142.82z"/>
</g>
</svg>
