<?xml version="1.0" encoding="utf-8"?>
<!-- Generator: Adobe Illustrator 23.1.1, SVG Export Plug-In . SVG Version: 6.00 Build 0)  -->
<svg version="1.1" id="Layer_1" xmlns="http://www.w3.org/2000/svg" xmlns:xlink="http://www.w3.org/1999/xlink" x="0px" y="0px"
	 viewBox="0 0 300 300" style="enable-background:new 0 0 300 300;" xml:space="preserve">
<style type="text/css">
	.st0{fill:#C3D8DF;}
	.st1{fill:none;stroke:#6991AC;stroke-miterlimit:10;}
	.st2{fill:#D65C36;}
</style>
<polygon class="st0" points="224.27,26.41 85.83,26.41 16.62,146.3 85.83,266.19 224.27,266.19 293.49,146.3 "/>
<polygon class="st1" points="210.49,19.8 72.05,19.8 2.83,139.69 72.05,259.58 210.49,259.58 279.7,139.69 "/>
<g>
	<path class="st2" d="M147.46,165.5c1.11,0,1.41,0.3,0.9,0.9c-0.51,0.6-1.02,1.2-1.54,1.79c-0.6,0.68-1.22,1.41-1.86,2.18
		c-0.64,0.77-1.35,1.62-2.11,2.56c-2.56,2.99-4.91,5.92-7.05,8.78c-2.14,2.86-4.44,5.79-6.92,8.78c-2.99,3.59-6.28,6.73-9.87,9.42
		c-3.59,2.69-7.48,4.04-11.67,4.04c-1.02,0-1.82-0.47-2.37-1.41c-0.56-0.94-0.92-2.16-1.09-3.65c-0.17-1.49-0.19-3.21-0.06-5.13
		c0.13-1.92,0.36-3.91,0.7-5.96c0.26-1.2,0.53-2.99,0.84-5.38c0.3-2.39,0.45-4.83,0.45-7.31c0-2.48-0.26-4.76-0.77-6.86
		c-0.52-2.09-1.46-3.48-2.82-4.17c-1.02-0.43-2.14-0.1-3.33,0.96c-1.2,1.07-2.33,2.42-3.4,4.04c-1.07,1.62-2.01,3.23-2.82,4.81
		c-0.81,1.58-1.35,2.63-1.6,3.14c-1.2,3.08-2.22,6.17-3.08,9.3c-0.86,3.12-1.73,5.96-2.63,8.52c-0.9,2.56-1.92,4.68-3.08,6.34
		c-1.15,1.67-2.67,2.54-4.55,2.63c-1.03,0-1.84-0.75-2.44-2.24c-0.6-1.49-1-3.42-1.22-5.77c-0.21-2.35-0.28-4.93-0.19-7.76
		c0.08-2.82,0.19-5.51,0.32-8.08s0.28-4.83,0.45-6.8c0.17-1.97,0.3-3.25,0.38-3.85c0.43-7.18,1.07-14.21,1.92-21.09
		c0.85-6.88,1.83-13.1,2.95-18.65c0.51-2.65,1.07-5.21,1.67-7.69c0.6-2.48,1.37-5.34,2.31-8.59c0.17-0.85,0.45-1.67,0.83-2.44
		c0.39-0.77,0.75-1.75,1.09-2.95c0.34-1.37,0.87-3.12,1.6-5.26c0.72-2.14,1.54-4.38,2.44-6.73c0.9-2.35,1.84-4.72,2.82-7.12
		c0.98-2.39,1.94-4.49,2.89-6.28c0.77-1.62,1.84-3.7,3.21-6.22c1.37-2.52,2.95-4.91,4.74-7.18c1.8-2.26,3.76-4.14,5.9-5.64
		c2.13-1.49,4.31-2.07,6.54-1.73c1.62,0.34,2.84,1.05,3.65,2.12c0.81,1.07,1.3,2.39,1.48,3.97c0.17,1.58,0.13,3.35-0.13,5.32
		c-0.26,1.97-0.6,3.97-1.02,6.03c-0.77,3.08-1.64,5.96-2.63,8.65c-0.98,2.69-1.69,4.72-2.12,6.09c-0.51,1.62-1.43,4-2.76,7.11
		c-1.32,3.12-2.88,6.67-4.68,10.64c-1.79,3.97-3.76,8.18-5.9,12.63c-2.14,4.44-4.32,8.84-6.54,13.2
		c-3.42,6.67-6.65,12.46-9.68,17.37c-3.04,4.91-5.49,8.48-7.37,10.7c0,3.59-0.11,7.69-0.32,12.31c-0.22,4.61-0.41,9.1-0.58,13.46
		c-0.09,2.56-0.02,4.55,0.19,5.96c0.21,1.41,0.66,2.07,1.35,1.99c0.6,0,1.2-0.58,1.79-1.73c0.6-1.15,1.16-2.54,1.67-4.17
		c0.51-1.62,1.02-3.31,1.54-5.06c0.51-1.75,1.02-3.27,1.54-4.55c0.26-0.6,0.58-1.43,0.96-2.5c0.38-1.07,0.81-2.26,1.28-3.59
		c0.47-1.32,0.98-2.69,1.54-4.1c0.55-1.41,1.17-2.75,1.86-4.04c1.45-2.82,3.14-5.13,5.06-6.92c1.92-1.8,3.99-2.52,6.22-2.18
		c1.71,0.26,3.08,1.2,4.1,2.82c1.02,1.62,1.75,3.42,2.18,5.38c0.43,1.97,0.66,3.97,0.71,6.03c0.04,2.05-0.06,3.76-0.32,5.13
		c-0.43,2.56-0.86,5.04-1.28,7.44c-0.43,2.39-0.68,4.53-0.77,6.41c-0.09,1.88,0.04,3.4,0.38,4.55c0.34,1.15,1.02,1.77,2.05,1.86
		c2.99-0.43,5.79-1.56,8.4-3.4c2.61-1.84,5.02-4.04,7.24-6.6c1.96-2.31,3.97-4.76,6.02-7.37c2.05-2.61,4.1-5.15,6.15-7.63
		c1.71-1.97,3.2-3.7,4.49-5.19c1.28-1.5,2.39-2.71,3.33-3.65c0.43-0.43,0.77-0.66,1.02-0.71
		C146.31,165.52,146.78,165.5,147.46,165.5z M84.65,122.3c-0.26,1.02-0.6,2.63-1.02,4.81c-0.43,2.18-0.88,4.64-1.35,7.37
		c-0.47,2.74-0.96,5.58-1.48,8.52c-0.51,2.95-0.96,5.68-1.35,8.2c-0.38,2.52-0.68,4.68-0.9,6.47c-0.22,1.8-0.24,2.91-0.06,3.33
		c0.08-0.08,0.38-0.58,0.9-1.47c0.51-0.9,1.15-2.01,1.92-3.33c0.77-1.32,1.58-2.76,2.43-4.29c0.85-1.54,1.67-2.99,2.44-4.36
		c0.77-1.37,1.43-2.54,1.99-3.53c0.56-0.98,0.88-1.6,0.96-1.86c1.88-3.85,3.89-7.8,6.02-11.86c2.13-4.06,4.23-8.18,6.28-12.37
		c2.05-4.19,3.97-8.33,5.77-12.44c1.8-4.1,3.37-8.12,4.74-12.05c0.6-1.96,1.3-3.93,2.12-5.9c0.81-1.96,1.54-3.99,2.18-6.09
		c0.64-2.09,1.11-4.23,1.41-6.41c0.3-2.18,0.32-4.51,0.06-6.99c-0.34-1.79-1.24-2.78-2.69-2.95c-2.14-0.08-4.32,0.96-6.54,3.14
		c-2.22,2.18-4.38,5.02-6.47,8.52c-2.1,3.51-4.08,7.46-5.96,11.86c-1.88,4.4-3.59,8.74-5.13,13.01c-1.54,4.27-2.86,8.25-3.97,11.92
		C85.85,117.26,85.08,120.16,84.65,122.3z"/>
	<path class="st2" d="M222.07,164.99c1.2-0.08,1.52,0.17,0.96,0.77c-0.56,0.6-1.09,1.24-1.6,1.92c-1.2,1.54-2.69,3.31-4.49,5.32
		c-1.79,2.01-3.72,4.21-5.77,6.6c-1.71,1.97-3.72,4.23-6.03,6.8c-2.31,2.56-4.74,5-7.31,7.3c-3.08,2.74-5.81,4.7-8.2,5.9
		s-4.57,1.92-6.54,2.18c-2.05,0.26-4.02,0.06-5.9-0.58c-1.88-0.64-3.83-1.56-5.83-2.75c-2.01-1.2-4.15-2.61-6.41-4.23
		c-2.27-1.62-4.81-3.29-7.63-5c-1.11-0.68-2.2-1.35-3.27-1.99c-1.07-0.64-2.03-1.24-2.88-1.8c-0.86-0.55-1.56-1.02-2.12-1.41
		c-0.56-0.38-0.88-0.7-0.96-0.96c-0.09,0.94-0.28,2.65-0.58,5.13c-0.3,2.48-0.58,5.06-0.84,7.76c-0.26,2.69-0.6,6.09-1.02,10.19
		l-0.13,2.05c0,1.28-0.73,1.54-2.18,0.77c-0.43-0.17-0.72-0.56-0.9-1.15c-0.17-0.6-0.21-1.62-0.13-3.08c0-1.11,0.13-2.75,0.38-4.93
		c0.26-2.18,0.52-4.53,0.77-7.05c0.26-2.52,0.47-5.04,0.64-7.56c0.17-2.52,0.21-4.76,0.13-6.73c-0.17-4.27-0.06-8.67,0.32-13.21
		c0.38-4.53,0.83-8.8,1.35-12.82c0.51-4.01,1.05-7.56,1.6-10.64c0.55-3.08,0.96-5.26,1.22-6.54c1.02-5.04,2.18-10.02,3.46-14.93
		c1.28-4.91,2.69-9.72,4.23-14.42c2.05-6.41,4.33-12.37,6.86-17.88c2.52-5.51,5.19-10.36,8.01-14.55c0.85-1.2,2.01-2.71,3.46-4.55
		c1.45-1.84,3.08-3.54,4.87-5.13c1.79-1.58,3.72-2.84,5.77-3.78c2.05-0.94,4.1-1.11,6.15-0.51c1.11,0.34,1.99,0.9,2.63,1.67
		c0.64,0.77,1.13,1.65,1.48,2.63c0.34,0.98,0.55,2.03,0.64,3.14c0.08,1.11,0.08,2.09,0,2.95c-0.17,2.39-0.64,5.11-1.41,8.14
		c-0.77,3.03-1.78,6.28-3.01,9.74c-1.24,3.46-2.67,7.09-4.29,10.9c-1.62,3.8-3.33,7.67-5.13,11.6c-2.91,6.32-6,12.35-9.29,18.07
		c-3.29,5.73-6.5,10.96-9.61,15.7c-3.12,4.74-6.01,8.8-8.65,12.18c-2.65,3.38-4.79,5.83-6.41,7.37c-0.09,1.02-0.15,2.5-0.19,4.42
		c-0.04,1.92-0.06,3.4-0.06,4.42c0,1.2-0.09,2.18-0.26,2.95c-0.17,0.77-0.26,1.67-0.26,2.69c0.6-0.6,1.41-1.3,2.43-2.12
		c1.03-0.81,2.09-1.58,3.21-2.31c1.11-0.72,2.18-1.41,3.21-2.05c1.02-0.64,1.84-1.13,2.44-1.47c0.94-0.6,2.26-1.43,3.97-2.5
		c1.71-1.07,3.54-2.18,5.51-3.33c1.97-1.15,3.93-2.26,5.9-3.33c1.97-1.07,3.63-1.86,5-2.37c0.77-0.34,1.3-0.43,1.6-0.26
		s0.45,0.4,0.45,0.7s-0.06,0.62-0.19,0.96c-0.13,0.34-0.24,0.51-0.32,0.51c-0.43,0.34-1.15,0.82-2.18,1.41
		c-1.02,0.6-2.22,1.28-3.59,2.05c-1.37,0.77-2.86,1.6-4.49,2.5c-1.62,0.9-3.2,1.77-4.74,2.63c-1.88,1.03-3.7,2.12-5.45,3.27
		c-1.75,1.15-3.33,2.24-4.74,3.27c-1.41,1.02-2.54,1.94-3.4,2.76c-0.86,0.81-1.33,1.43-1.41,1.86c1.11,0.77,2.26,1.62,3.46,2.56
		c1.03,0.77,2.2,1.62,3.53,2.56c1.32,0.94,2.71,1.92,4.17,2.95c4.44,3.16,8.18,5.64,11.22,7.44c3.03,1.79,5.81,2.78,8.33,2.95
		c2.52,0.17,5.06-0.49,7.63-1.99c2.56-1.49,5.6-3.95,9.1-7.37c2.22-2.13,4.4-4.4,6.54-6.79c2.13-2.39,4.12-4.68,5.96-6.86
		c1.84-2.18,3.51-4.14,5-5.9c1.49-1.75,2.75-3.14,3.78-4.17c0.51-0.43,0.87-0.64,1.09-0.64
		C220.94,164.99,221.39,164.99,222.07,164.99z M154.77,124.48c-1.02,3.84-1.99,7.84-2.88,11.98c-0.9,4.15-1.62,7.95-2.18,11.41
		c-0.56,3.46-0.94,6.26-1.15,8.4c-0.22,2.14-0.15,3.12,0.19,2.95c0.51-0.26,1.75-1.73,3.72-4.42c1.97-2.69,4.33-6.2,7.12-10.51
		c2.77-4.31,5.75-9.23,8.91-14.74c3.16-5.51,6.2-11.21,9.1-17.11c7.52-15.38,12.22-27.31,14.1-35.77
		c1.88-8.46,1.45-13.25-1.28-14.36c-2.14-0.77-4.87,0.28-8.2,3.14c-3.33,2.86-6.92,7.71-10.77,14.55
		c-3.59,6.32-7.14,14.44-10.64,24.36c-0.17,0.34-0.43,1.11-0.77,2.31c-0.34,1.2-0.79,2.69-1.35,4.49c-0.56,1.79-1.17,3.83-1.86,6.09
		C156.14,119.5,155.45,121.91,154.77,124.48z"/>
</g>
</svg>
