<?xml version="1.0" encoding="utf-8"?>
<!-- Generator: Adobe Illustrator 24.0.1, SVG Export Plug-In . SVG Version: 6.00 Build 0)  -->
<svg version="1.1" xmlns="http://www.w3.org/2000/svg" xmlns:xlink="http://www.w3.org/1999/xlink" x="0px" y="0px"
	 viewBox="0 0 500 500" style="enable-background:new 0 0 500 500;" xml:space="preserve">
<style type="text/css">
	.st0{fill:none;stroke:#575455;stroke-width:1.8595;stroke-miterlimit:10;}
	.st1{fill:none;stroke:#575455;stroke-width:1.8595;stroke-linecap:round;stroke-linejoin:round;stroke-miterlimit:10;}
	.st2{fill:none;stroke:#575455;stroke-width:1.591;stroke-linecap:round;stroke-linejoin:round;stroke-miterlimit:10;}
	.st3{fill:#EBEBEB;stroke:#575455;stroke-width:1.8595;stroke-linecap:round;stroke-linejoin:round;stroke-miterlimit:10;}
	.st4{fill:#575455;}
	.st5{fill:none;}
</style>
<g id="sun">
	<g>
		<circle class="st0" cx="248.53" cy="234.45" r="59.69"/>
		<line class="st1" x1="250" y1="162.76" x2="250" y2="118.27"/>
		<line class="st1" x1="231.33" y1="167.46" x2="222.23" y2="135.22"/>
		<line class="st1" x1="214.95" y1="174.63" x2="188.84" y2="135.22"/>
		<line class="st1" x1="199.25" y1="183.38" x2="179.79" y2="165.87"/>
		<line class="st1" x1="185.78" y1="204.8" x2="149.98" y2="183.38"/>
		<line class="st1" x1="180.57" y1="226.31" x2="155.19" y2="221.09"/>
		<line class="st1" x1="143.77" y1="255.94" x2="180.57" y2="248.43"/>
		<line class="st1" x1="167.88" y1="279.11" x2="186.22" y2="266.4"/>
		<line class="st1" x1="268.67" y1="167.46" x2="277.77" y2="135.22"/>
		<line class="st1" x1="285.05" y1="174.63" x2="311.16" y2="135.22"/>
		<line class="st1" x1="300.75" y1="183.38" x2="320.21" y2="165.87"/>
		<line class="st1" x1="314.22" y1="204.8" x2="350.02" y2="183.38"/>
		<line class="st1" x1="319.43" y1="226.31" x2="344.81" y2="221.09"/>
		<line class="st1" x1="356.23" y1="255.94" x2="319.43" y2="248.43"/>
		<line class="st1" x1="332.12" y1="279.11" x2="313.78" y2="266.4"/>
		<path class="st2" d="M197.46,234.45c0-3.53,0.36-6.97,1.04-10.29"/>
		<path class="st2" d="M201.48,214.58c4.85-11.46,13.75-20.78,24.92-26.15"/>
	</g>
</g>
<g id="mt">
	<g>
		<path class="st3" d="M404.79,332.28c0,0-45.97-50.63-50.21-49.92c-4.24,0.71-26.13,20.48-26.13,20.48s-67.79-91.09-77.67-86.15
			c-9.89,4.94-82.62,98.15-82.62,98.15s-20.48-29.66-28.25-25.42c-7.77,4.24-45.8,40.93-45.8,40.93s47.92,81.23,156.67,83.06
			C352.16,415.12,404.79,332.28,404.79,332.28z"/>
		<line class="st1" x1="118.92" y1="311.84" x2="144.8" y2="289.89"/>
		<line class="st1" x1="118.02" y1="319.35" x2="149.01" y2="292.7"/>
		<line class="st1" x1="117.32" y1="325.79" x2="152.71" y2="296.05"/>
		<line class="st1" x1="118.92" y1="331.16" x2="156.37" y2="299.9"/>
		<line class="st1" x1="121.2" y1="337.44" x2="160.44" y2="304.66"/>
		<line class="st1" x1="126.85" y1="342.03" x2="164.56" y2="309.9"/>
		<line class="st1" x1="255.2" y1="217.81" x2="217.94" y2="261.53"/>
		<line class="st1" x1="223.59" y1="263.3" x2="259.12" y2="220.65"/>
		<line class="st1" x1="239.83" y1="261.53" x2="267.72" y2="228.71"/>
		<line class="st1" x1="244.44" y1="265.33" x2="272.03" y2="233.25"/>
		<line class="st1" x1="240.31" y1="289.95" x2="279.87" y2="241.97"/>
		<line class="st1" x1="235.24" y1="304.66" x2="283.81" y2="246.54"/>
		<path class="st1" d="M287.52,250.92l-55.1,65.69c0,0,2.82-16.95,13.77-43.07l29.7-36.06"/>
		<line class="st1" x1="239.83" y1="318.47" x2="291.34" y2="255.51"/>
		<line class="st1" x1="252.8" y1="312.85" x2="295.36" y2="260.4"/>
		<line class="st1" x1="273.73" y1="304.66" x2="302.76" y2="269.59"/>
		<line class="st1" x1="279.87" y1="306.37" x2="305.9" y2="273.54"/>
		<line class="st1" x1="287.52" y1="306.37" x2="309.94" y2="278.68"/>
		<line class="st1" x1="292.88" y1="308.49" x2="313.91" y2="283.77"/>
		<line class="st1" x1="305.9" y1="312.73" x2="320.78" y2="292.7"/>
		<line class="st1" x1="311.51" y1="314.84" x2="324.68" y2="297.82"/>
		<path class="st1" d="M328.45,302.84l-16.95,20.48c0,0,7.31-9.89-12.16-13.42l18.09-21.56"/>
		<line class="st1" x1="328.45" y1="308.49" x2="354.58" y2="282.36"/>
		<line class="st1" x1="333.04" y1="312.73" x2="359.88" y2="286.06"/>
		<line class="st1" x1="341.52" y1="321.05" x2="359.88" y2="304.66"/>
		<line class="st1" x1="346.46" y1="325.97" x2="359.88" y2="312.73"/>
		<line class="st1" x1="350.7" y1="330.56" x2="359.88" y2="321.05"/>
		<path class="st1" d="M121.2,304.97c0,0-14.89,34.77,11.8,41.3l35.16-31.42"/>
		<path class="st1" d="M213.33,258.35c0,0,4.62,6.71,19.09,3.18l31-35.66"/>
		<path class="st1" d="M232.42,261.53c0,0,13.71-5.94,13.77,12"/>
		<path class="st1" d="M232.42,316.61c0,0,2.14,9.37,33.93-11.96l33-39.33"/>
		<path class="st1" d="M266.35,304.66c0,0,12.65,1.72,33,5.25"/>
		<path class="st1" d="M324.78,307.28c0,0,12.62,5.92,28.39,26.16c15.77,20.24-0.28-32.68,11.86-42.47l-27.05,25.22"/>
		<line class="st1" x1="311.51" y1="323.32" x2="276.2" y2="363.33"/>
	</g>
	<line class="st1" x1="167.75" y1="338.43" x2="186.08" y2="317.6"/>
	<line class="st1" x1="191.64" y1="312.83" x2="196.7" y2="307.36"/>
	<line class="st1" x1="246.6" y1="385.17" x2="268.54" y2="359.86"/>
	<line class="st1" x1="280.29" y1="347.26" x2="287.93" y2="338.43"/>
	<line class="st1" x1="354.99" y1="364.32" x2="368.35" y2="347.26"/>
	<line class="st1" x1="137.26" y1="355.79" x2="146.12" y2="347.26"/>
</g>
<g id="dots">
	<g>
		<circle class="st4" cx="82.71" cy="230.07" r="4.07"/>
		<circle class="st4" cx="413.4" cy="230.07" r="4.07"/>
	</g>
</g>
<g id="text">
	<g>
		<path id="SVGID_x5F_1_x5F_" class="st5" d="M82.61,268.26c-8.67-94.2,60.66-177.59,154.86-186.27s177.59,60.66,186.27,154.86"/>
		<text>		<textPath  xlink:href="#SVGID_x5F_1_x5F_" startOffset="15.604%">
<tspan  class="st4" style="font-family:'Quicksand-Bold'; font-size:25.4209px; letter-spacing:400;">DENVER, COLORADO</tspan>		</textPath>
</text>
	</g>
</g>
</svg>
